<mxfile host="app.diagrams.net" modified="2023-08-19T11:51:37.255Z" agent="Mozilla/5.0 (Macintosh; Intel Mac OS X 10_15_7) AppleWebKit/537.36 (KHTML, like Gecko) Chrome/115.0.0.0 Safari/537.36" version="21.6.6" etag="4RX3uq6fHswp2y9anT4m" type="github">
  <diagram name="Page-1" id="UV2t3X-m2OCO-8mjCe4w">
    <mxGraphModel>
      <root>
        <mxCell id="0" />
        <mxCell id="1" parent="0" />
      </root>
    </mxGraphModel>
  </diagram>
</mxfile>
